<svg width="242" height="48" viewBox="0 0 242 48" fill="none" xmlns="http://www.w3.org/2000/svg">
<path d="M50.4028 27.9048C51.2244 28.7264 52.4033 29.137 53.9393 29.137C54.3323 29.137 54.7206 29.1059 55.1047 29.0433C55.4977 28.9807 55.904 28.887 56.3238 28.7621L56.5919 28.6818C56.7525 28.6372 56.9045 28.6015 57.0474 28.5746C57.1992 28.5389 57.3421 28.5209 57.4761 28.5209C58.1994 28.5209 58.7218 28.9093 59.0433 29.6863L59.097 29.8203C59.2488 30.1953 59.3248 30.5259 59.3248 30.8117C59.3248 31.4904 58.981 31.9725 58.2934 32.2583C57.8559 32.4369 57.4049 32.5978 56.9405 32.7407C56.485 32.8747 56.0295 32.9862 55.5742 33.0756C55.1187 33.1739 54.6723 33.2454 54.2345 33.2899C53.8059 33.3345 53.4041 33.3568 53.0288 33.3568C50.037 33.3568 47.7823 32.5755 46.2639 31.0126C44.7547 29.4497 44 27.0697 44 23.8727C44 22.2118 44.1966 20.7649 44.5893 19.5324C44.9822 18.2909 45.5583 17.2639 46.3174 16.4514C47.0855 15.6298 48.032 15.0179 49.1574 14.6161C50.2828 14.2052 51.5731 14 53.0288 14C54.2702 14 55.534 14.1875 56.8199 14.5627C57.1683 14.661 57.4941 14.7682 57.7979 14.8842C58.1014 14.9914 58.3649 15.1208 58.5883 15.2726C58.8204 15.4243 58.9993 15.6075 59.1242 15.8218C59.2582 16.0273 59.3251 16.2774 59.3251 16.572C59.3251 16.8935 59.2536 17.215 59.1107 17.5365L59.057 17.6705C58.7266 18.4564 58.2131 18.8493 57.5164 18.8493C57.2575 18.8493 56.9583 18.7913 56.6188 18.6753C55.7077 18.3718 54.8147 18.2198 53.9396 18.2198C53.0911 18.2198 52.359 18.3358 51.7426 18.5681C51.1353 18.8002 50.6352 19.1531 50.2422 19.6264C49.8493 20.0908 49.5589 20.6712 49.3715 21.3679C49.1929 22.0646 49.1034 22.8771 49.1034 23.8059C49.1034 25.6723 49.5364 27.0386 50.4028 27.9048Z" fill="#3A3116"/>
<path d="M76.6563 30.8117C75.8255 31.651 74.8299 32.2851 73.6688 32.7138C72.5168 33.1425 71.2131 33.3568 69.7573 33.3568C68.2301 33.3568 66.8593 33.1379 65.6447 32.7004C64.439 32.254 63.4122 31.6241 62.5638 30.8117C61.7153 29.9901 61.0634 28.9987 60.6079 27.8379C60.1615 26.6679 59.938 25.3596 59.938 23.913C59.938 22.377 60.1524 20.9972 60.581 19.7738C61.0186 18.5504 61.6573 17.5099 62.4966 16.6526C63.3362 15.7952 64.363 15.1388 65.5776 14.6833C66.7921 14.2278 68.1853 14 69.7571 14C71.2217 14 72.5388 14.232 73.7088 14.6964C74.8787 15.152 75.8701 15.8038 76.6826 16.6523C77.5042 17.4919 78.1337 18.5053 78.5716 19.6932C79.0091 20.8809 79.228 22.2027 79.228 23.6584C79.228 25.1676 79.0091 26.5296 78.5716 27.7442C78.134 28.9496 77.4956 29.9721 76.6563 30.8117ZM66.2343 19.8404C65.8325 20.3582 65.5333 20.9658 65.3367 21.6622C65.14 22.3587 65.042 23.1134 65.042 23.9262C65.042 24.6495 65.1446 25.3282 65.3501 25.9623C65.5644 26.5876 65.8725 27.1366 66.2743 27.6101C66.6761 28.0834 67.1628 28.4586 67.7343 28.7355C68.3059 29.0036 68.9535 29.1373 69.6768 29.1373C70.3555 29.1373 70.9673 29.0033 71.512 28.7355C72.0658 28.4675 72.5345 28.0971 72.9183 27.6236C73.3113 27.1412 73.615 26.5696 73.8294 25.9089C74.0437 25.2482 74.1509 24.5203 74.1509 23.7253C74.1509 22.9662 74.0483 22.2561 73.8428 21.5954C73.6373 20.9255 73.3427 20.3405 72.9586 19.8404C72.5745 19.3403 72.1013 18.9474 71.5386 18.6616C70.9848 18.367 70.3598 18.2195 69.6633 18.2195C68.1901 18.2195 67.047 18.7599 66.2343 19.8404Z" fill="#3A3116"/>
<path d="M97.488 30.8117C96.6572 31.651 95.6616 32.2851 94.5007 32.7138C93.3485 33.1425 92.0448 33.3568 90.589 33.3568C89.0618 33.3568 87.691 33.1379 86.4764 32.7004C85.271 32.254 84.2439 31.6241 83.3954 30.8117C82.547 29.9901 81.8951 28.9987 81.4396 27.8379C80.9932 26.6679 80.77 25.3596 80.77 23.913C80.77 22.377 80.9844 20.9972 81.413 19.7738C81.8505 18.5504 82.489 17.5099 83.3286 16.6526C84.1679 15.7952 85.195 15.1388 86.4095 14.6833C87.6241 14.2278 89.0173 14 90.589 14C92.0536 14 93.3708 14.232 94.5407 14.6964C95.7107 15.152 96.7021 15.8038 97.5145 16.6523C98.3361 17.4919 98.966 18.5053 99.4035 19.6932C99.841 20.8812 100.06 22.2027 100.06 23.6584C100.06 25.1676 99.841 26.5296 99.4035 27.7442C98.966 28.9496 98.3273 29.9721 97.488 30.8117ZM87.066 19.8404C86.6642 20.3582 86.365 20.9658 86.1683 21.6622C85.972 22.359 85.8737 23.1134 85.8737 23.9262C85.8737 24.6495 85.9763 25.3282 86.1818 25.9623C86.3961 26.5876 86.7042 27.1366 87.1063 27.6101C87.5081 28.0834 87.9947 28.4586 88.5663 28.7355C89.1379 29.0036 89.7854 29.1373 90.5087 29.1373C91.1874 29.1373 91.799 29.0033 92.344 28.7355C92.8975 28.4675 93.3665 28.0971 93.7506 27.6236C94.1435 27.1412 94.447 26.5696 94.6613 25.9089C94.8757 25.2482 94.9828 24.5203 94.9828 23.7253C94.9828 22.9662 94.8802 22.2561 94.6748 21.5954C94.4693 20.9255 94.1747 20.3405 93.7906 19.8404C93.4065 19.3403 92.9333 18.9474 92.3706 18.6616C91.817 18.367 91.1917 18.2195 90.4953 18.2195C89.0218 18.2195 87.8787 18.7599 87.066 19.8404Z" fill="#3A3116"/>
<path d="M104.126 33.0351C103.51 33.0351 103.041 32.8788 102.72 32.5662C102.407 32.2447 102.251 31.7757 102.251 31.1596V16.21C102.251 15.5939 102.407 15.1295 102.72 14.8169C103.041 14.4954 103.51 14.3345 104.126 14.3345H105.6C106.216 14.3345 106.681 14.4951 106.993 14.8169C107.314 15.1295 107.475 15.5939 107.475 16.21V21.1531C107.94 20.7422 108.382 20.3361 108.801 19.934C109.221 19.5322 109.619 19.1124 109.994 18.6749C110.369 18.2373 110.717 17.7818 111.039 17.3086C111.369 16.8262 111.677 16.3038 111.963 15.7414C112.204 15.259 112.494 14.9063 112.834 14.6831C113.182 14.4511 113.624 14.3348 114.16 14.3348H115.834C116.352 14.3348 116.763 14.4508 117.067 14.6831C117.37 14.9063 117.522 15.2101 117.522 15.5942C117.522 15.88 117.433 16.1926 117.254 16.5318C116.995 17.0408 116.696 17.5632 116.357 18.099C116.026 18.6348 115.669 19.1661 115.285 19.6931C114.91 20.22 114.513 20.7336 114.093 21.2337C113.682 21.7249 113.262 22.1893 112.834 22.6269C113.128 23.2161 113.481 23.846 113.892 24.5156C114.302 25.1763 114.74 25.8418 115.205 26.5114C115.678 27.1721 116.16 27.8197 116.651 28.4538C117.151 29.0788 117.634 29.6504 118.098 30.1685C118.491 30.6149 118.687 31.0393 118.687 31.4411C118.687 31.95 118.393 32.401 117.803 32.7939L117.04 33.3029C116.611 33.5975 116.191 33.745 115.781 33.745C115.29 33.745 114.838 33.5261 114.428 33.0886C113.945 32.5973 113.45 32.0346 112.941 31.4008C112.441 30.7666 111.954 30.1194 111.48 29.4584C111.016 28.7885 110.583 28.1278 110.181 27.4756C109.779 26.8149 109.444 26.2119 109.176 25.6672C108.551 26.0602 107.984 26.3682 107.475 26.5914V31.1593C107.475 31.7754 107.314 32.2444 106.993 32.5659C106.681 32.8785 106.216 33.0348 105.6 33.0348H104.126V33.0351Z" fill="#3A3116"/>
<path d="M122.299 33.0351C121.682 33.0351 121.213 32.8788 120.892 32.5662C120.579 32.2447 120.423 31.7757 120.423 31.1596V16.21C120.423 15.5939 120.579 15.1295 120.892 14.8169C121.213 14.4954 121.682 14.3345 122.299 14.3345H123.772C124.388 14.3345 124.853 14.4951 125.165 14.8169C125.487 15.1295 125.648 15.5939 125.648 16.21V31.1596C125.648 31.7757 125.487 32.2447 125.165 32.5662C124.853 32.8788 124.388 33.0351 123.772 33.0351H122.299Z" fill="#3A3116"/>
<path d="M130.374 33.0351C129.758 33.0351 129.289 32.8788 128.967 32.5662C128.655 32.2447 128.499 31.7757 128.499 31.1596V16.21C128.499 15.5939 128.655 15.1295 128.967 14.8169C129.289 14.4954 129.758 14.3345 130.374 14.3345H139.523C140.139 14.3345 140.604 14.4951 140.916 14.8169C141.238 15.1295 141.398 15.5939 141.398 16.21V16.679C141.398 17.2951 141.238 17.7641 140.916 18.0856C140.604 18.3982 140.139 18.5545 139.523 18.5545H133.723V21.6355H138.385C139.001 21.6355 139.465 21.7961 139.778 22.1179C140.099 22.4305 140.26 22.8949 140.26 23.5111V23.6851C140.26 24.3012 140.099 24.7702 139.778 25.0917C139.465 25.4043 139.001 25.5606 138.385 25.5606H133.723V28.8159H139.831C140.447 28.8159 140.912 28.9765 141.224 29.2983C141.546 29.611 141.707 30.0753 141.707 30.6915V31.1604C141.707 31.7766 141.546 32.2455 141.224 32.567C140.912 32.8797 140.447 33.036 139.831 33.036H130.374V33.0351Z" fill="#3A3116"/>
<path d="M149.296 27.9048C150.118 28.7264 151.297 29.137 152.833 29.137C153.226 29.137 153.614 29.1059 153.998 29.0433C154.391 28.9807 154.797 28.887 155.217 28.7621L155.485 28.6818C155.646 28.6372 155.798 28.6015 155.941 28.5746C156.092 28.5389 156.235 28.5209 156.369 28.5209C157.092 28.5209 157.615 28.9093 157.936 29.6863L157.99 29.8203C158.142 30.1953 158.218 30.5259 158.218 30.8117C158.218 31.4904 157.874 31.9725 157.186 32.2583C156.749 32.4369 156.298 32.5978 155.833 32.7407C155.378 32.8747 154.923 32.9862 154.467 33.0756C154.012 33.1739 153.565 33.2454 153.127 33.2899C152.699 33.3345 152.297 33.3568 151.922 33.3568C148.93 33.3568 146.675 32.5755 145.157 31.0126C143.648 29.4497 142.893 27.0697 142.893 23.8727C142.893 22.2118 143.089 20.7649 143.482 19.5324C143.875 18.2909 144.451 17.2639 145.21 16.4514C145.979 15.6298 146.925 15.0179 148.051 14.6161C149.176 14.2052 150.466 14 151.922 14C153.163 14 154.427 14.1875 155.713 14.5627C156.061 14.661 156.387 14.7682 156.691 14.8842C156.994 14.9914 157.258 15.1208 157.481 15.2726C157.713 15.4243 157.892 15.6075 158.017 15.8218C158.151 16.0273 158.218 16.2774 158.218 16.572C158.218 16.8935 158.146 17.215 158.004 17.5365L157.95 17.6705C157.619 18.4564 157.106 18.8493 156.409 18.8493C156.15 18.8493 155.851 18.7913 155.512 18.6753C154.601 18.3718 153.708 18.2198 152.833 18.2198C151.984 18.2198 151.252 18.3358 150.636 18.5681C150.029 18.8002 149.529 19.1531 149.136 19.6264C148.743 20.0908 148.452 20.6712 148.265 21.3679C148.086 22.0646 147.997 22.8771 147.997 23.8059C147.997 25.6723 148.43 27.0386 149.296 27.9048Z" fill="#3A3116"/>
<path d="M162.874 31.7091C161.23 30.4231 160.409 28.4138 160.409 25.681V16.21C160.409 15.5939 160.565 15.1295 160.878 14.8169C161.199 14.4954 161.668 14.3345 162.284 14.3345H163.758C164.374 14.3345 164.838 14.4951 165.151 14.8169C165.472 15.1295 165.633 15.5939 165.633 16.21V25.2389C165.633 25.9264 165.687 26.516 165.794 27.007C165.901 27.4982 166.084 27.9 166.343 28.2127C166.602 28.5253 166.946 28.7573 167.375 28.9094C167.803 29.0614 168.343 29.1371 168.995 29.1371C170.13 29.1371 170.951 28.8291 171.46 28.2129C171.969 27.5968 172.224 26.6143 172.224 25.266V16.2103C172.224 15.5942 172.38 15.1298 172.693 14.8171C173.014 14.4956 173.483 14.3348 174.099 14.3348H175.573C176.189 14.3348 176.653 14.4954 176.966 14.8171C177.287 15.1298 177.448 15.5942 177.448 16.2103V25.6812C177.448 28.1995 176.729 30.1108 175.292 31.4145C173.863 32.7093 171.674 33.3569 168.728 33.3569C166.227 33.3566 164.276 32.8074 162.874 31.7091Z" fill="#3A3116"/>
<path d="M180.937 18.5545C180.32 18.5545 179.852 18.3982 179.53 18.0856C179.218 17.7641 179.061 17.2951 179.061 16.679V16.21C179.061 15.5939 179.218 15.1295 179.53 14.8169C179.852 14.4954 180.32 14.3345 180.937 14.3345H197.851C198.467 14.3345 198.932 14.4951 199.244 14.8169C199.566 15.1295 199.726 15.5939 199.726 16.21V16.679C199.726 17.2951 199.566 17.7641 199.244 18.0856C198.932 18.3982 198.467 18.5545 197.851 18.5545H189.148V31.1599C189.148 31.776 188.987 32.245 188.666 32.5665C188.354 32.8791 187.889 33.0354 187.273 33.0354H185.799C185.183 33.0354 184.714 32.8791 184.393 32.5665C184.08 32.245 183.924 31.776 183.924 31.1599V18.5545H180.937Z" fill="#3A3116"/>
<path d="M196.223 18.5545C195.607 18.5545 195.138 18.3982 194.816 18.0856C194.503 17.7641 194.347 17.2951 194.347 16.679V16.21C194.347 15.5939 194.503 15.1295 194.816 14.8169C195.138 14.4954 195.607 14.3345 196.223 14.3345H207.421C208.038 14.3345 208.502 14.4951 208.815 14.8169C209.136 15.1295 209.297 15.5939 209.297 16.21V16.679C209.297 17.2951 209.136 17.7641 208.815 18.0856C208.502 18.3982 208.038 18.5545 207.421 18.5545H204.434V31.1599C204.434 31.776 204.274 32.245 203.952 32.5665C203.639 32.8791 203.175 33.0354 202.559 33.0354H201.085C200.469 33.0354 200 32.8791 199.679 32.5665C199.366 32.245 199.21 31.776 199.21 31.1599V18.5545H196.223Z" fill="#3A3116"/>
<path d="M212.635 33.0351C212.019 33.0351 211.55 32.8788 211.228 32.5662C210.916 32.2447 210.759 31.7757 210.759 31.1596V16.21C210.759 15.5939 210.916 15.1295 211.228 14.8169C211.55 14.4954 212.019 14.3345 212.635 14.3345H221.784C222.4 14.3345 222.865 14.4951 223.177 14.8169C223.499 15.1295 223.659 15.5939 223.659 16.21V16.679C223.659 17.2951 223.499 17.7641 223.177 18.0856C222.865 18.3982 222.4 18.5545 221.784 18.5545H215.984V21.6355H220.646C221.262 21.6355 221.726 21.7961 222.039 22.1179C222.36 22.4305 222.521 22.8949 222.521 23.5111V23.6851C222.521 24.3012 222.36 24.7702 222.039 25.0917C221.726 25.4043 221.262 25.5606 220.646 25.5606H215.984V28.8159H222.092C222.708 28.8159 223.173 28.9765 223.485 29.2983C223.807 29.611 223.968 30.0753 223.968 30.6915V31.1604C223.968 31.7766 223.807 32.2455 223.485 32.567C223.173 32.8797 222.708 33.036 222.092 33.036H212.635V33.0351Z" fill="#3A3116"/>
<path d="M241.059 30.4233C240.595 29.9052 240.112 29.3337 239.612 28.7087C239.121 28.0745 238.639 27.4273 238.166 26.7663C237.973 26.4882 237.788 26.2116 237.604 25.9352C238.697 25.2885 239.527 24.5218 240.087 23.6316C240.694 22.6582 240.998 21.5463 240.998 20.296C240.998 19.4387 240.828 18.6482 240.489 17.9249C240.159 17.1927 239.672 16.5629 239.029 16.0362C238.386 15.5004 237.6 15.0851 236.671 14.7905C235.742 14.487 234.689 14.335 233.51 14.335H227.87C227.254 14.335 226.785 14.4956 226.464 14.8174C226.151 15.13 225.995 15.5944 225.995 16.2105V31.1601C225.995 31.7762 226.151 32.2452 226.464 32.5667C226.785 32.8793 227.254 33.0356 227.87 33.0356H229.344C229.96 33.0356 230.424 32.8793 230.737 32.5667C231.058 32.2452 231.219 31.7762 231.219 31.1601V27.5701H232.586C232.739 27.5701 232.889 27.5641 233.037 27.5553C233.072 27.6142 233.106 27.671 233.142 27.7307C233.544 28.3826 233.977 29.0436 234.441 29.7135C234.915 30.3742 235.401 31.0218 235.901 31.6559C236.41 32.29 236.906 32.8527 237.388 33.3437C237.799 33.7812 238.25 34.0001 238.741 34.0001C239.152 34.0001 239.572 33.8527 240 33.558L240.764 33.0491C241.353 32.6561 241.648 32.2052 241.648 31.6962C241.648 31.2938 241.452 30.8697 241.059 30.4233ZM231.22 18.4073H233.309C233.693 18.4073 234.046 18.4653 234.367 18.5813C234.689 18.6885 234.961 18.8494 235.185 19.0637C235.417 19.278 235.595 19.537 235.72 19.8407C235.845 20.1442 235.908 20.4883 235.908 20.8721C235.908 21.265 235.837 21.6223 235.694 21.9438C235.56 22.2653 235.363 22.5422 235.104 22.7742C234.854 22.9974 234.551 23.176 234.193 23.3101C233.836 23.435 233.434 23.4975 232.988 23.4975H231.22V18.4073Z" fill="#3A3116"/>
<path d="M39.6308 8.36922C40.3707 7.62928 40.3753 6.42314 39.5793 5.74386C36.4663 3.08725 32.7166 1.26365 28.6822 0.461155C24.0266 -0.464892 19.201 0.0103868 14.8156 1.82689C10.4302 3.64339 6.68189 6.71953 4.04473 10.6663C1.40758 14.6131 4.14974e-07 19.2532 0 24C-4.14974e-07 28.7467 1.40757 33.3869 4.04473 37.3337C6.68188 41.2805 10.4302 44.3566 14.8156 46.1731C19.201 47.9896 24.0266 48.4649 28.6822 47.5388C32.7166 46.7364 36.4662 44.9128 39.5793 42.2561C40.3753 41.5769 40.3707 40.3707 39.6308 39.6308L25.3398 25.3398C24.5998 24.5998 24.5998 23.4002 25.3398 22.6602L39.6308 8.36922Z" fill="#F2C921"/>
<circle cx="20.2106" cy="11.9999" r="3.78947" fill="#3A3116"/>
<path d="M14.682 28.6822C12.0568 31.3074 10.9432 31.3074 8.31802 28.6822C5.69283 26.057 5.69283 24.9434 8.31802 22.3182C10.9432 19.693 12.0568 19.693 14.682 22.3182C17.3072 24.9434 17.3072 26.057 14.682 28.6822Z" fill="#B08C2E"/>
<path d="M26.9749 40.9749C25.0613 42.8885 23.9387 42.8885 22.0251 40.9749C20.1116 39.0613 20.1116 37.9387 22.0251 36.0252C23.9387 34.1116 25.0613 34.1116 26.9749 36.0252C28.8884 37.9387 28.8884 39.0613 26.9749 40.9749Z" fill="#B08C2E"/>
</svg>
